# AST/ASF file generated using VICON BodyLanguage
# -----------------------------------------------
:version 1.10
:name VICON
:units
  mass 1.0
  length 0.45
  angle deg
:documentation
   .ast/.asf automatically generated from VICON data using
   VICON BodyBuilder and BodyLanguage model FoxedUp or BRILLIANT.MOD
:root
   order TX TY TZ RX RY RZ
   axis XYZ
   position 0 0 0  
   orientation 0 0 0 
:bonedata
  begin
     id 1 
     name lhipjoint
     direction 0.610259 -0.730986 0.305356 
     length 2.50941 
     axis 0 0 0  XYZ
  end
  begin
     id 2 
     name lfemur
     direction 0.34202 -0.939693 0  
     length 7.48822  
     axis 0 0 20  XYZ
    dof rx ry rz
    limits (-160.0 20.0)
           (-70.0 70.0)
           (-60.0 70.0)
  end
  begin
     id 3 
     name ltibia
     direction 0.34202 -0.939693 0   
     length 7.60141   
     axis 0 0 20   XYZ
    dof rx
    limits (-10.0 170.0)
  end
  begin
     id 4 
     name lfoot
     direction 0.0673488 -0.185039 0.980421   
     length 2.04049   
     axis -90 7.62852e-016 20   XYZ
    dof rx rz
    limits (-45.0 90.0)
           (-70.0 20.0)
  end
  begin
     id 5 
     name ltoes
     direction 1.5356e-011 -4.21729e-011 1   
     length 1.02897   
     axis -90 7.62852e-016 20   XYZ
    dof rx
    limits (-90.0 20.0)
  end
  begin
     id 6 
     name rhipjoint
     direction -0.57612 -0.754205 0.315056   
     length 2.43216  
     axis 0 0 0  XYZ 
  end
  begin
     id 7 
     name rfemur
     direction -0.34202 -0.939693 0   
     length 7.42799   
     axis 0 0 -20   XYZ
    dof rx ry rz
    limits (-160.0 20.0)
           (-70.0 70.0)
           (-70.0 60.0)
  end
  begin
     id 8 
     name rtibia
     direction -0.34202 -0.939693 0   
     length 7.69484   
     axis 0 0 -20   XYZ
    dof rx
    limits (-10.0 170.0)
 end
 begin
     id 9 
     name rfoot
     direction -0.111837 -0.30727 0.945028   
     length 2.15769  
     axis -90 -7.62852e-016 -20   XYZ
    dof rx rz
    limits (-45.0 90.0)
           (-20.0 70.0)
  end
  begin
     id 10 
     name rtoes
     direction -1.53539e-011 -4.21878e-011 1   
     length 1.07391   
     axis -90 -7.62852e-016 -20   XYZ
    dof rx
    limits (-90.0 20.0)
  end
  begin
     id 11 
     name lowerback
     direction 0.00552624 0.990109 -0.140195   
     length 2.12403   
     axis 0 0 0   XYZ
    dof rx ry rz
    limits (-20.0 45.0)
           (-30.0 30.0)
           (-30.0 30.0)
  end
  begin
     id 12 
     name upperback
     direction 0.00361898 0.999976 -0.00584723   
     length 2.13232   
     axis 0 0 0   XYZ
    dof rx ry rz
    limits (-20.0 45.0)
           (-30.0 30.0)
           (-30.0 30.0)
  end
  begin
     id 13 
     name thorax
     direction -0.000331275 0.998253 0.0590847   
     length 2.17688   
     axis 0 0 0   XYZ
    dof rx ry rz
    limits (-20.0 45.0)
           (-30.0 30.0)
           (-30.0 30.0)
  end
  begin
     id 14 
     name lowerneck
     direction -0.0561561 0.979832 0.19177   
     length 1.64159   
     axis 0 0 0   XYZ
    dof rx ry rz
    limits (-20.0 45.0)
           (-30.0 30.0)
           (-30.0 30.0)
  end
  begin
     id 15 
     name upperneck
     direction 0.0827153 0.979385 -0.184293   
     length 1.68939   
     axis 0 0 0   XYZ
    dof rx ry rz
    limits (-20.0 45.0)
           (-30.0 30.0)
           (-30.0 30.0)
  end
  begin
     id 16
     name head
     direction 0.0278583 0.995936 -0.0856488  
     length 1.70207  
     axis 0 0 0   XYZ
    dof rx ry rz
    limits (-20.0 45.0)
           (-30.0 30.0)
           (-30.0 30.0)
  end
  begin
     id 17 
     name lclavicle
     direction 0.950993 0.301131 -0.0702275  
     length 3.41652  
     axis 0 0 0   XYZ
    dof ry rz
    limits (-20.0 10.0)
           (0.0 20.0)
  end
  begin
     id 18 
     name lhumerus
     direction 1 -4.48981e-011 -3.9662e-029   
     length 5.32955   
     axis 180 -30 -90   XYZ
    dof rx ry rz
    limits (-60.0 90.0)
           (-90.0 90.0)
           (-90.0 90.0)
  end
  begin
     id 19
     name lradius
     direction 1 -4.48925e-011 -9.0549e-027   
     length 3.69232   
     axis 180 -30 -90   XYZ
    dof rx
    limits (-10.0 170.0)
  end
  begin
     id 20
     name lwrist
     direction 1 -4.49007e-011 -1.49005e-026   
     length 1.84616   
     axis 9.0955e-015 90 90   XYZ
    dof ry
    limits (-180.0 0.0)
 end
  begin
     id 21 
     name lhand
     direction 1 -4.49016e-011 -2.98023e-026   
     length 0.536598   
     axis 1.90115e-014 90 90   XYZ
    dof rx rz
    limits (-90.0 90.0)
           (-45.0 45.0)
  end
  begin
     id 22 
     name lfingers
     direction 1 -4.48924e-011 -5.9578e-026   
     length 0.432619   
     axis 3.80223e-014 90 90   XYZ
    dof rx
    limits (0.0 90.0)
  end
  begin
     id 23
     name lthumb
     direction 0.707107 -6.34947e-011 0.707107   
     length 0.621157   
     axis -90 45 -3.84942e-014   XYZ
    dof rx rz
    limits (-45.0 45.0)
           (-45.0 45.0)
  end
  begin
     id 24 
     name rclavicle
     direction -0.955495 0.276497 -0.102848   
     length 3.36357  
     axis 0 0 0   XYZ 
    dof ry rz
    limits (-10.0 20.0)
           (-20.0 0.0)
  end
  begin
     id 25 
     name rhumerus
     direction -1 -4.48961e-011 3.30983e-027  
     length 5.23431   
     axis 180 30 90   XYZ
    dof rx ry rz
    limits (-90.0 60.0)
           (-90.0 90.0)
           (-90.0 90.0)
  end
  begin
     id 26 
     name rradius
     direction -1 -4.48965e-011 -6.63263e-027   
     length 3.55301   
     axis 180 30 90   XYZ
    dof rx
    limits (-10.0 170.0)
  end
  begin
     id 27 
     name rwrist
     direction -1 -4.48942e-011 -1.48958e-026   
     length 1.77651   
     axis 9.0955e-015 -90 -90   XYZ
    dof ry
    limits (-180.0 0.0)
  end
  begin
     id 28
     name rhand
     direction -1 -4.48977e-011 -2.97966e-026   
     length 0.772522   
     axis 1.90115e-014 -90 -90   XYZ
    dof rx rz
    limits (-90.0 90.0)
           (-45.0 45.0)
  end
  begin
     id 29
     name rfingers
     direction -1 -4.49135e-011 -5.96389e-026   
     length 0.622827   
     axis 3.80223e-014 -90 -90   XYZ
    dof rx
    limits (0.0 90.0)
  end
  begin
     id 30
     name rthumb
     direction -0.707107 -6.34969e-011 0.707107   
     length 0.894259   
     axis -90 -45 3.84942e-014   XYZ
    dof rx rz
    limits (-45.0 45.0)
           (-45.0 45.0)
  end
:hierarchy
  begin
    root lhipjoint rhipjoint lowerback
    lhipjoint lfemur
    lfemur ltibia
    ltibia lfoot
    lfoot ltoes
    rhipjoint rfemur
    rfemur rtibia
    rtibia rfoot
    rfoot rtoes
    lowerback upperback
    upperback thorax
    thorax lowerneck lclavicle rclavicle
    lowerneck upperneck
    upperneck head
    lclavicle lhumerus
    lhumerus lradius
    lradius lwrist
    lwrist lhand lthumb
    lhand lfingers
    rclavicle rhumerus
    rhumerus rradius
    rradius rwrist
    rwrist rhand rthumb
    rhand rfingers
  end

#!OML:ASF F:\VICON\USERDATA\INSTALL\rory3\rory3.ASF
:FULLY-SPECIFIED
:DEGREES
1
root -11.4272 17.6278 -10.7845 -153.867 82.2675 -152.307
lowerback 12.8258 0.10304 -1.05726
upperback 0.896395 0.102915 0.974335
thorax -6.25721 0.115865 1.60361
lowerneck -13.9056 -10.3055 -14.9145
upperneck 32.2661 -13.6293 10.4467
head 15.5563 -6.04856 4.51761
rclavicle 4.09993e-015 -1.23246e-014
rhumerus -36.3877 -12.5985 -78.3729
rradius 34.7563
rwrist 7.34862
rhand -18.475 7.37432
rfingers 7.12502
rthumb 7.81185 -22.4614
lclavicle 4.09993e-015 -1.23246e-014
lhumerus -36.4837 15.5583 71.3887
lradius 33.756
lwrist -5.79283
lhand -19.0436 25.6805
lfingers 7.12502
lthumb 7.26311 55.5358
rfemur -1.31516 3.52303 15.7272
rtibia 23.7107
rfoot -14.9578 -4.82147
rtoes -13.391
lfemur -9.8828 -18.1271 2.70977
ltibia 32.0431
lfoot -6.58636 -5.86421
ltoes -9.74937
2
root -11.4377 17.6403 -10.6841 -154.246 82.3349 -152.385
lowerback 13.1173 0.12828 -0.98554
upperback 1.02763 0.152592 1.0051
thorax -6.28234 0.140521 1.58675
lowerneck -13.9477 -10.3281 -14.8304
upperneck 32.3648 -13.6367 10.3121
head 15.5928 -6.05406 4.44578
rclavicle 7.52897e-015 -2.38542e-015
rhumerus -36.3409 -12.0694 -78.1395
rradius 35.0792
rwrist 6.894
rhand -18.4764 7.44852
rfingers 7.12502
rthumb 7.81056 -22.3872
lclavicle 7.52897e-015 -2.38542e-015
lhumerus -36.3484 15.1401 72.042
lradius 33.7333
lwrist -6.65533
lhand -19.1546 25.3934
lfingers 7.12502
lthumb 7.1559 55.2524
rfemur -1.23827 3.58394 16.0509
rtibia 23.9854
rfoot -14.9801 -4.7722
rtoes -12.5692
lfemur -10.1151 -18.2408 1.87777
ltibia 33.3571
lfoot -7.72455 -7.77594
ltoes -9.66477
3
root -11.4429 17.6476 -10.5948 -153.49 82.3621 -151.489
lowerback 13.1146 0.121503 -0.633691
upperback 1.1427 0.201375 1.04504
thorax -6.1595 0.155871 1.42025
lowerneck -13.934 -10.3142 -14.8816
upperneck 32.4301 -13.6161 10.3569
head 15.6279 -6.04376 4.48233
rclavicle -3.8266e-015 5.76476e-015
rhumerus -36.2522 -11.7984 -77.7885
rradius 35.2665
rwrist 6.75289
rhand -18.4682 7.63814
rfingers 7.12502
rthumb 7.81845 -22.1973
lclavicle -3.8266e-015 5.76476e-015
lhumerus -36.2113 14.7487 72.7144
lradius 33.7203
lwrist -7.52497
lhand -19.225 25.0989
lfingers 7.12502
lthumb 7.08801 54.9602
rfemur -1.39219 3.41867 16.4156
rtibia 24.3877
rfoot -15.1784 -4.43721
rtoes -12.4016
lfemur -10.3975 -18.1795 1.1212
ltibia 34.4971
lfoot -8.96293 -9.71778
ltoes -10.9345
4
root -11.4601 17.6445 -10.5007 -155.701 82.4762 -153.557
lowerback 13.2997 0.175139 -0.709531
upperback 1.23665 0.25843 0.958866
thorax -6.16447 0.185742 1.36172
lowerneck -13.7736 -10.2651 -14.8946
upperneck 32.2598 -13.6127 10.5538
head 15.5289 -6.02567 4.57119
rclavicle -4.07509e-015 5.1684e-015
rhumerus -36.2639 -11.886 -77.3541
rradius 35.5401
rwrist 6.54331
rhand -18.4813 7.70628
rfingers 7.12502
rthumb 7.80578 -22.1296
lclavicle -4.07509e-015 5.1684e-015
lhumerus -36.019 14.124 73.438
lradius 33.7431
lwrist -8.27541
lhand -19.1584 24.9514
lfingers 7.12502
lthumb 7.15225 54.8106
rfemur -1.51427 3.36017 16.3897
rtibia 24.747
rfoot -15.2974 -4.29052
rtoes -12.1247
lfemur -10.7142 -18.1275 -0.0627381
ltibia 35.5951
lfoot -9.99755 -11.7051
ltoes -11.5357
5
root -11.4798 17.6444 -10.4075 -158.613 82.6136 -156.306
lowerback 13.5957 0.234725 -0.907406
upperback 1.30008 0.302862 0.854221
thorax -6.26339 0.212944 1.35493
lowerneck -13.7222 -10.2681 -14.9033
upperneck 32.2502 -13.6423 10.6302
head 15.5266 -6.02976 4.60203
rclavicle 1.49089e-014 -4.37326e-015
rhumerus -36.3435 -11.9411 -76.9223
rradius 35.8705
rwrist 6.1484
rhand -18.5528 7.76638
rfingers 7.12502
rthumb 7.73676 -22.0721
lclavicle 1.49089e-014 -4.37326e-015
lhumerus -35.8334 13.6084 74.0783
lradius 33.7044
lwrist -9.00892
lhand -18.8052 24.5802
lfingers 7.12502
lthumb 7.49317 54.4275
rfemur -1.60261 3.38109 16.3152
rtibia 25.0811
rfoot -15.3384 -4.3747
rtoes -12.0341
lfemur -10.9615 -18.0233 -1.37015
ltibia 36.6258
lfoot -10.8252 -13.363
ltoes -11.2718
6
root -11.4916 17.6537 -10.3264 -156.805 82.6995 -154.625
lowerback 13.4363 0.240033 -0.501162
upperback 1.29179 0.372918 0.892572
thorax -6.18354 0.236458 1.15252
lowerneck -13.7635 -10.2747 -14.8972
upperneck 32.3918 -13.643 10.604
head 15.602 -6.02708 4.59484
rclavicle 1.05604e-014 -5.36719e-015
rhumerus -36.3661 -11.7887 -76.5477
rradius 36.1139
rwrist 5.6472
rhand -18.7433 7.82532
rfingers 7.12502
rthumb 7.55297 -22.0198
lclavicle 1.05604e-014 -5.36719e-015
lhumerus -35.7433 13.3477 74.5852
lradius 33.687
lwrist -9.7402
lhand -18.3419 23.8587
lfingers 7.12502
lthumb 7.9404 53.6896
rfemur -2.05051 3.45864 16.8004
rtibia 25.4534
rfoot -15.4446 -4.44096
rtoes -12.3505
lfemur -11.3747 -17.6922 -2.08663
ltibia 37.5585
lfoot -11.7871 -14.4529
ltoes -12.22
7
root -11.5046 17.6647 -10.2468 -155.474 82.8765 -153.412
lowerback 13.2634 0.264222 -0.204781
upperback 1.30596 0.448086 0.894441
thorax -6.0721 0.265121 0.973279
lowerneck -13.7087 -10.1496 -14.7474
upperneck 32.3574 -13.4825 10.5644
head 15.5234 -5.94709 4.58799
rclavicle -9.49197e-015 -7.15625e-015
rhumerus -36.2877 -11.6784 -76.1608
rradius 36.2288
rwrist 5.13816
rhand -18.828 7.79094
rfingers 7.12502
rthumb 7.47117 -22.0571
lclavicle -9.49197e-015 -7.15625e-015
lhumerus -35.6925 13.1876 75.0371
lradius 33.7217
lwrist -10.6179
lhand -18.0497 23.1676
lfingers 7.12502
lthumb 8.22232 52.9876
rfemur -2.47356 3.62094 17.1507
rtibia 25.8025
rfoot -15.5694 -4.42567
rtoes -11.9359
lfemur -11.7043 -17.1872 -2.98082
ltibia 38.4162
lfoot -12.6851 -15.324
ltoes -12.857
8
root -11.5178 17.6722 -10.1664 -156.873 83.1498 -154.718
lowerback 13.3319 0.329054 -0.325959
upperback 1.38916 0.515404 0.847905
thorax -6.02383 0.301243 0.98019
lowerneck -13.6446 -10.0667 -14.6353
upperneck 32.2729 -13.382 10.5447
head 15.4358 -5.89611 4.58089
rclavicle -6.43565e-015 -2.38542e-015
rhumerus -36.1994 -11.9588 -75.6554
rradius 36.3718
rwrist 4.8417
rhand -18.8489 7.42213
rfingers 7.12502
rthumb 7.45102 -22.4267
lclavicle -6.43565e-015 -2.38542e-015
lhumerus -35.6258 13.0071 75.5532
lradius 33.8275
lwrist -11.2457
lhand -18.0317 23.1174
lfingers 7.12502
lthumb 8.23976 52.9368
rfemur -2.61341 3.81 17.1431
rtibia 26.1179
rfoot -15.7109 -4.39555
rtoes -10.5856
lfemur -11.7801 -16.6964 -4.32109
ltibia 39.2017
lfoot -13.2949 -16.2948
ltoes -12.1061
9
root -11.5264 17.6775 -10.0902 -157.933 83.4718 -155.759
lowerback 13.2865 0.426893 -0.421776
upperback 1.44544 0.629931 0.819328
thorax -5.942 0.359365 0.983612
lowerneck -13.6433 -10.0769 -14.5395
upperneck 32.2675 -13.3975 10.4728
head 15.4187 -5.89917 4.53011
rclavicle 1.32689e-014 -8.54774e-015
rhumerus -36.2104 -12.2863 -75.0558
rradius 36.5609
rwrist 4.4275
rhand -19.7361 6.78299
rfingers 7.12502
rthumb 6.59462 -23.0943
lclavicle 1.32689e-014 -8.54774e-015
lhumerus -35.5478 12.7137 76.1167
lradius 33.9355
lwrist -11.3688
lhand -18.2202 23.2896
lfingers 7.12502
lthumb 8.05784 53.116
rfemur -2.881 3.93565 17.1165
rtibia 26.5007
rfoot -15.9147 -4.26079
rtoes -9.43727
lfemur -11.8646 -16.0217 -5.71588
ltibia 39.879
lfoot -14.3761 -16.8139
ltoes -13.865
10
root -11.5359 17.6812 -10.0169 -158.36 83.7716 -156.235
lowerback 13.1681 0.475298 -0.377161
upperback 1.48152 0.698069 0.782657
thorax -5.83855 0.390909 0.908224
lowerneck -13.6773 -10.0239 -14.4923
upperneck 32.32 -13.3185 10.4495
head 15.4306 -5.85996 4.53031
rclavicle -1.42131e-014 7.7526e-015
rhumerus -36.2003 -12.5544 -74.5388
rradius 36.6699
rwrist 4.03671
rhand -21.0844 6.07907
rfingers 7.12502
rthumb 5.29286 -23.8348
lclavicle -1.42131e-014 7.7526e-015
lhumerus -35.5371 12.4906 76.5844
lradius 34.0929
lwrist -11.223
lhand -18.231 23.1534
lfingers 7.12502
lthumb 8.04735 52.9802
rfemur -3.27072 4.00472 17.1591
rtibia 26.9662
rfoot -16.0741 -4.08067
rtoes -8.30182
lfemur -12.026 -15.2521 -7.02028
ltibia 40.4672
lfoot -15.0982 -17.2571
ltoes -14.7006
11
root -11.5466 17.6854 -9.94261 -159.494 84.1199 -157.405
lowerback 13.0759 0.531129 -0.395515
upperback 1.51847 0.762922 0.682946
thorax -5.74833 0.421671 0.802864
lowerneck -13.751 -9.96912 -14.5094
upperneck 32.4579 -13.2351 10.4777
head 15.5042 -5.81731 4.56742
rclavicle -8.92046e-015 -2.18663e-015
rhumerus -36.1435 -12.9759 -74.1223
rradius 36.728
rwrist 3.65093
rhand -21.5239 5.85894
rfingers 7.12502
rthumb 4.86852 -24.0651
lclavicle -8.92046e-015 -2.18663e-015
lhumerus -35.5949 12.182 77.0226
lradius 34.3528
lwrist -11.0425
lhand -18.2148 23.2599
lfingers 7.12502
lthumb 8.06305 53.0861
rfemur -3.65899 4.17145 17.1547
rtibia 27.4685
rfoot -16.2289 -4.09318
rtoes -8.03582
lfemur -12.1335 -14.4303 -8.37641
ltibia 40.9786
lfoot -15.1302 -18.2451
ltoes -12.6752
12
root -11.5599 17.6855 -9.86674 -161.155 84.3948 -159.091
lowerback 13.0395 0.590576 -0.498196
upperback 1.54211 0.823936 0.632219
thorax -5.70487 0.453235 0.797105
lowerneck -13.8158 -9.91676 -14.4889
upperneck 32.5802 -13.1264 10.3936
head 15.5489 -5.77419 4.55369
rclavicle 1.30949e-014 1.98785e-016
rhumerus -36.1126 -13.436 -73.5834
rradius 36.8012
rwrist 3.16955
rhand -21.0447 6.23178
rfingers 7.12502
rthumb 5.33119 -23.6812
lclavicle 1.30949e-014 1.98785e-016
lhumerus -35.6437 11.9631 77.4971
lradius 34.6074
lwrist -10.7483
lhand -18.3429 23.5469
lfingers 7.12502
lthumb 7.93944 53.3778
rfemur -4.03523 4.07063 17.1128
rtibia 27.9923
rfoot -16.3806 -3.96463
rtoes -7.94713
lfemur -12.2319 -13.4221 -9.73795
ltibia 41.4036
lfoot -15.2274 -19.5407
ltoes -10.6646
13
root -11.5745 17.682 -9.79439 -160.99 84.5861 -158.972
lowerback 13.0278 0.620908 -0.438436
upperback 1.54093 0.87655 0.695403
thorax -5.70079 0.478373 0.820544
lowerneck -13.8938 -9.82367 -14.3845
upperneck 32.6512 -12.9246 10.1598
head 15.5322 -5.70168 4.47621
rclavicle 2.24751e-014 -7.45443e-015
rhumerus -36.1201 -13.7197 -72.9663
rradius 36.9631
rwrist 2.6871
rhand -20.4696 6.67995
rfingers 7.12502
rthumb 5.88647 -23.2183
lclavicle 2.24751e-014 -7.45443e-015
lhumerus -35.6811 11.913 77.9713
lradius 34.7713
lwrist -10.4933
lhand -18.3478 23.4158
lfingers 7.12502
lthumb 7.93469 53.2469
rfemur -4.47504 3.87546 17.2601
rtibia 28.5265
rfoot -16.5471 -3.75004
rtoes -8.03626
lfemur -12.3557 -12.3063 -10.9152
ltibia 41.7231
lfoot -15.7016 -20.6178
ltoes -10.3653
14
root -11.5859 17.6813 -9.72516 -159.579 84.8287 -157.55
lowerback 13.0402 0.658479 -0.244427
upperback 1.54794 0.957133 0.74008
thorax -5.69952 0.514204 0.743501
lowerneck -13.9318 -9.69318 -14.2341
upperneck 32.7165 -12.7123 10.0094
head 15.5061 -5.60904 4.4316
rclavicle 6.65929e-015 4.96962e-016
rhumerus -36.0796 -14.0349 -72.4284
rradius 37.0182
rwrist 2.22051
rhand -19.9903 7.06529
rfingers 7.12502
rthumb 6.34923 -22.8196
lclavicle 6.65929e-015 4.96962e-016
lhumerus -35.7513 11.7075 78.42
lradius 34.9715
lwrist -10.0296
lhand -18.1203 23.1736
lfingers 7.12502
lthumb 8.1542 52.9962
rfemur -4.83991 3.92787 17.5201
rtibia 29.0502
rfoot -16.7729 -3.53059
rtoes -7.42601
lfemur -12.3633 -11.071 -12.0019
ltibia 41.9436
lfoot -16.1847 -21.6352
ltoes -10.6413
15
root -11.5937 17.6758 -9.65443 -157.878 85.0996 -155.875
lowerback 12.9686 0.717984 -0.0649698
upperback 1.53958 1.06011 0.733558
thorax -5.66693 0.560303 0.617857
lowerneck -13.895 -9.60298 -14.2014
upperneck 32.7729 -12.6046 10.0583
head 15.5076 -5.55172 4.47482
rclavicle 2.14936e-015 -9.44227e-016
rhumerus -36.0277 -14.4149 -71.9696
rradius 36.9724
rwrist 1.78106
rhand -19.4105 7.41784
rfingers 7.12502
rthumb 6.90891 -22.4494
lclavicle 2.14936e-015 -9.44227e-016
lhumerus -35.8352 11.4819 78.7852
lradius 35.1726
lwrist -9.60073
lhand -18.4771 23.2697
lfingers 7.12502
lthumb 7.80989 53.1054
rfemur -5.20043 4.11932 17.7832
rtibia 29.5629
rfoot -16.9827 -3.326
rtoes -6.6282
lfemur -12.3551 -9.73059 -13.0614
ltibia 42.0532
lfoot -16.84 -22.5145
ltoes -12.197
